<mxfile host="app.diagrams.net" modified="2022-12-10T14:19:56.973Z" agent="5.0 (Windows)" etag="qyq_2xRVNvaGDVd8VPyl" version="20.5.3" type="github">
  <diagram id="6I3H6sHd9QMHkWCgy-9B" name="Page-1">
    <mxGraphModel dx="1038" dy="556" grid="1" gridSize="10" guides="1" tooltips="1" connect="1" arrows="1" fold="1" page="1" pageScale="1" pageWidth="1169" pageHeight="1654" math="0" shadow="0">
      <root>
        <mxCell id="0" />
        <mxCell id="1" parent="0" />
        <mxCell id="y8NVgGY2WCv2lQLzB2qV-13" style="edgeStyle=orthogonalEdgeStyle;rounded=0;orthogonalLoop=1;jettySize=auto;html=1;entryX=0;entryY=0.5;entryDx=0;entryDy=0;" edge="1" parent="1" source="y8NVgGY2WCv2lQLzB2qV-1" target="y8NVgGY2WCv2lQLzB2qV-10">
          <mxGeometry relative="1" as="geometry" />
        </mxCell>
        <mxCell id="y8NVgGY2WCv2lQLzB2qV-1" value="Dostava" style="swimlane;whiteSpace=wrap;html=1;" vertex="1" parent="1">
          <mxGeometry x="150" y="120" width="125" height="100" as="geometry" />
        </mxCell>
        <mxCell id="y8NVgGY2WCv2lQLzB2qV-8" value="IzvestiDostavuvac()" style="text;html=1;align=center;verticalAlign=middle;resizable=0;points=[];autosize=1;strokeColor=none;fillColor=none;" vertex="1" parent="y8NVgGY2WCv2lQLzB2qV-1">
          <mxGeometry x="-5" y="40" width="130" height="30" as="geometry" />
        </mxCell>
        <mxCell id="y8NVgGY2WCv2lQLzB2qV-2" value="" style="ellipse;html=1;shape=endState;fillColor=#000000;strokeColor=#ff0000;" vertex="1" parent="1">
          <mxGeometry x="60" y="320" width="30" height="30" as="geometry" />
        </mxCell>
        <mxCell id="y8NVgGY2WCv2lQLzB2qV-14" style="edgeStyle=orthogonalEdgeStyle;rounded=0;orthogonalLoop=1;jettySize=auto;html=1;entryX=0;entryY=0.5;entryDx=0;entryDy=0;" edge="1" parent="1" source="y8NVgGY2WCv2lQLzB2qV-3" target="y8NVgGY2WCv2lQLzB2qV-1">
          <mxGeometry relative="1" as="geometry" />
        </mxCell>
        <mxCell id="y8NVgGY2WCv2lQLzB2qV-3" value="" style="ellipse;fillColor=strokeColor;" vertex="1" parent="1">
          <mxGeometry x="60" y="155" width="30" height="30" as="geometry" />
        </mxCell>
        <mxCell id="y8NVgGY2WCv2lQLzB2qV-21" style="edgeStyle=orthogonalEdgeStyle;rounded=0;orthogonalLoop=1;jettySize=auto;html=1;entryX=0.5;entryY=0;entryDx=0;entryDy=0;" edge="1" parent="1" source="y8NVgGY2WCv2lQLzB2qV-10" target="y8NVgGY2WCv2lQLzB2qV-17">
          <mxGeometry relative="1" as="geometry" />
        </mxCell>
        <mxCell id="y8NVgGY2WCv2lQLzB2qV-10" value="Dostavucac" style="swimlane;whiteSpace=wrap;html=1;startSize=23;" vertex="1" parent="1">
          <mxGeometry x="350" y="120" width="120" height="100" as="geometry" />
        </mxCell>
        <mxCell id="y8NVgGY2WCv2lQLzB2qV-11" value="DobijDostava()" style="text;html=1;align=center;verticalAlign=middle;resizable=0;points=[];autosize=1;strokeColor=none;fillColor=none;" vertex="1" parent="y8NVgGY2WCv2lQLzB2qV-10">
          <mxGeometry x="10" y="40" width="100" height="30" as="geometry" />
        </mxCell>
        <mxCell id="y8NVgGY2WCv2lQLzB2qV-15" value="Najdi dostavuvac" style="text;html=1;strokeColor=none;fillColor=none;align=center;verticalAlign=middle;whiteSpace=wrap;rounded=0;" vertex="1" parent="1">
          <mxGeometry x="280" y="185" width="60" height="30" as="geometry" />
        </mxCell>
        <mxCell id="y8NVgGY2WCv2lQLzB2qV-23" style="edgeStyle=orthogonalEdgeStyle;rounded=0;orthogonalLoop=1;jettySize=auto;html=1;entryX=1.015;entryY=0.333;entryDx=0;entryDy=0;entryPerimeter=0;" edge="1" parent="1" source="y8NVgGY2WCv2lQLzB2qV-17" target="y8NVgGY2WCv2lQLzB2qV-20">
          <mxGeometry relative="1" as="geometry" />
        </mxCell>
        <mxCell id="y8NVgGY2WCv2lQLzB2qV-17" value="Dostava" style="swimlane;whiteSpace=wrap;html=1;" vertex="1" parent="1">
          <mxGeometry x="350" y="280" width="120" height="100" as="geometry" />
        </mxCell>
        <mxCell id="y8NVgGY2WCv2lQLzB2qV-18" value="PodigniDostava()" style="text;html=1;align=center;verticalAlign=middle;resizable=0;points=[];autosize=1;strokeColor=none;fillColor=none;" vertex="1" parent="y8NVgGY2WCv2lQLzB2qV-17">
          <mxGeometry x="5" y="40" width="110" height="30" as="geometry" />
        </mxCell>
        <mxCell id="y8NVgGY2WCv2lQLzB2qV-19" value="Dostavucac" style="swimlane;whiteSpace=wrap;html=1;startSize=23;" vertex="1" parent="1">
          <mxGeometry x="155" y="280" width="125" height="100" as="geometry" />
        </mxCell>
        <mxCell id="y8NVgGY2WCv2lQLzB2qV-20" value="IsporachajDostava()" style="text;html=1;align=center;verticalAlign=middle;resizable=0;points=[];autosize=1;strokeColor=none;fillColor=none;" vertex="1" parent="y8NVgGY2WCv2lQLzB2qV-19">
          <mxGeometry x="-5" y="40" width="130" height="30" as="geometry" />
        </mxCell>
        <mxCell id="y8NVgGY2WCv2lQLzB2qV-22" value="Zemi Dostava" style="text;html=1;strokeColor=none;fillColor=none;align=center;verticalAlign=middle;whiteSpace=wrap;rounded=0;" vertex="1" parent="1">
          <mxGeometry x="410" y="240" width="60" height="30" as="geometry" />
        </mxCell>
        <mxCell id="y8NVgGY2WCv2lQLzB2qV-24" value="Dostavi" style="text;html=1;strokeColor=none;fillColor=none;align=center;verticalAlign=middle;whiteSpace=wrap;rounded=0;" vertex="1" parent="1">
          <mxGeometry x="290" y="330" width="60" height="30" as="geometry" />
        </mxCell>
        <mxCell id="y8NVgGY2WCv2lQLzB2qV-27" style="edgeStyle=orthogonalEdgeStyle;rounded=0;orthogonalLoop=1;jettySize=auto;html=1;entryX=1;entryY=0.5;entryDx=0;entryDy=0;" edge="1" parent="1" source="y8NVgGY2WCv2lQLzB2qV-20" target="y8NVgGY2WCv2lQLzB2qV-2">
          <mxGeometry relative="1" as="geometry" />
        </mxCell>
      </root>
    </mxGraphModel>
  </diagram>
</mxfile>
